# xmcd
#
# Track frame offsets:
#	150
#	9003
#	32517
#	52597
#	66015
#	80163
#	100051
#	116958
#	137055
#	155133
#	170144
#	194726
#
# Disc length: 2865 seconds
#
# Revision: 1
# Processed by: cddbd v1.5PL3 Copyright (c) Steve Scherf et al.
# Submitted via: audiograbber 1.83.01
#
DISCID=9f0b2f0c
DTITLE=Knut Hem - Once In A Very Blue Mood
DYEAR=2000
DGENRE=Country
TTITLE0=Intro
TTITLE1=Winterland
TTITLE2="Hen" Breakdown
TTITLE3=String Attack
TTITLE4=Once In A Very Blue Mood
TTITLE5=Bebopabossalulababy
TTITLE6=Blueberry Sky
TTITLE7=When You Say Nothing At All
TTITLE8=Cherokee Shuffle
TTITLE9=One From The Heart
TTITLE10=Out In The Fields
TTITLE11=To Lise
EXTD=All Songs By Knut Hem, except \n"Cherokee Shuffle" - Trad. arr.\nand \n"Wh
EXTD=en You Say Nothing At All" - Paul Overstreet/Don Slitz
EXTT0=
EXTT1=
EXTT2=
EXTT3=
EXTT4=
EXTT5=
EXTT6=
EXTT7=
EXTT8=
EXTT9=
EXTT10=
EXTT11=
PLAYORDER=
